<svg version="1.1" id="Layer_1" xmlns="http://www.w3.org/2000/svg" xmlns:xlink="http://www.w3.org/1999/xlink" x="0px" y="0px"
	 width="100%" viewBox="0 0 600 600" enable-background="new 0 0 600 600" xml:space="preserve">
<path fill="#FFFFFF" opacity="1.000000" stroke="none" 
	d="
M399.000000,601.000000 
	C266.000000,601.000000 133.500000,601.000000 1.000000,601.000000 
	C1.000000,401.000000 1.000000,201.000000 1.000000,1.000000 
	C201.000000,1.000000 401.000000,1.000000 601.000000,1.000000 
	C601.000000,201.000000 601.000000,401.000000 601.000000,601.000000 
	C533.833313,601.000000 466.666656,601.000000 399.000000,601.000000 
M274.499481,376.536957 
	C279.567596,369.373535 286.766907,368.374786 294.523163,370.172150 
	C301.697540,371.834656 305.144135,377.220123 306.287567,384.150665 
	C306.772217,387.088074 306.963409,390.103088 306.976318,393.084198 
	C307.042694,408.402008 306.999512,423.720245 307.021820,439.038300 
	C307.023865,440.456146 307.217285,441.873718 307.323883,443.319336 
	C314.665771,443.319336 321.594208,443.319336 328.530670,443.319336 
	C328.708221,442.602295 328.923370,442.138428 328.923523,441.674500 
	C328.929077,421.861176 329.019745,402.046967 328.851959,382.234985 
	C328.786560,374.514984 326.140839,367.552399 321.019897,361.661499 
	C306.611725,345.086975 284.161835,347.903076 275.401398,367.452728 
	C274.055420,370.456451 273.374481,373.758179 271.977905,377.335815 
	C271.616455,377.567535 271.255005,377.799255 270.994080,377.094604 
	C270.994080,358.498749 270.994080,339.902863 270.994080,321.132996 
	C263.540863,321.132996 256.627533,321.132996 249.451721,321.132996 
	C249.451721,361.901947 249.451721,402.446411 249.451721,443.247009 
	C256.648468,443.247009 263.693146,443.247009 270.921783,443.247009 
	C270.921783,424.265381 270.921783,405.626007 271.196167,386.307068 
	C272.136139,383.207336 273.076080,380.107605 274.499481,376.536957 
M357.499786,276.650635 
	C428.581635,276.650635 499.663483,276.650635 570.661865,276.650635 
	C570.661865,267.428131 570.661865,258.842438 570.661865,250.319107 
	C471.641724,250.319107 372.937469,250.319107 274.266418,250.319107 
	C274.266418,259.194275 274.266418,267.751038 274.266418,276.650604 
	C301.906006,276.650604 329.202881,276.650604 357.499786,276.650635 
M68.994919,444.504303 
	C86.028450,449.128510 102.387344,447.430267 117.787369,438.764404 
	C126.685806,433.757080 133.174591,426.582275 135.195755,416.153107 
	C138.193634,400.684082 130.960022,385.607452 115.656998,378.209625 
	C107.822357,374.422150 99.022392,372.597900 90.608437,370.052521 
	C83.301880,367.842224 75.563553,366.672241 68.668297,363.585510 
	C59.702980,359.572052 58.871525,349.565674 66.133179,343.091705 
	C81.345230,329.529724 106.727524,336.989014 111.654907,356.573181 
	C119.043167,356.573181 126.456581,356.573181 134.121201,356.573181 
	C133.754120,342.047363 127.601608,330.879303 115.122902,324.457336 
	C95.316360,314.264191 74.950607,314.354736 55.280304,325.089569 
	C44.081482,331.201202 38.061695,341.054779 38.439468,354.192230 
	C38.840240,368.129456 45.177017,378.398285 57.886490,384.308136 
	C62.229874,386.327789 66.888924,387.774536 71.525307,389.036469 
	C81.792458,391.831024 92.248848,393.978210 102.407249,397.106476 
	C108.485863,398.978394 112.673149,403.483856 112.777298,410.373871 
	C112.877441,416.998779 108.817390,421.083435 103.377739,423.992645 
	C84.617828,434.025818 62.936108,424.622467 57.812710,404.334656 
	C50.400463,404.334656 43.013084,404.334656 35.631241,404.334656 
	C36.151184,423.236023 48.242062,437.896606 68.994919,444.504303 
M128.337738,268.206909 
	C128.925812,269.940369 129.354523,271.752136 130.154785,273.381378 
	C130.744598,274.582123 131.788269,276.440155 132.683487,276.471558 
	C139.894501,276.724335 147.118256,276.613129 154.871323,276.613129 
	C141.188690,235.174255 127.800484,194.627121 114.443130,154.173416 
	C99.461411,154.173416 84.984558,154.173416 70.266594,154.173416 
	C57.234238,194.884430 44.220211,235.538177 31.060429,276.647247 
	C38.205502,276.647247 44.698547,276.460968 51.172707,276.729706 
	C54.187485,276.854797 55.188282,275.546204 55.959389,272.995514 
	C58.078545,265.985809 60.418640,259.042877 62.673252,252.074142 
	C65.619530,242.967621 65.620338,242.967880 75.367516,242.967880 
	C90.164436,242.967896 104.961357,242.967896 119.829498,242.967896 
	C122.666939,251.379547 125.378822,259.419006 128.337738,268.206909 
M363.244476,438.297607 
	C386.626648,452.549957 416.402130,444.583435 427.750519,420.941071 
	C432.424713,411.203247 433.357178,400.891937 432.093323,390.229889 
	C428.747284,362.002106 401.355865,344.098755 374.257599,352.761810 
	C357.081879,358.252716 346.997345,370.467194 344.137756,387.965576 
	C340.889984,407.839203 345.322632,425.396179 363.244476,438.297607 
M453.260132,428.205719 
	C469.499573,448.227081 498.484406,451.391235 517.729858,434.955048 
	C531.407776,423.273621 534.809998,407.762360 532.987549,390.636139 
	C530.791992,370.004211 515.193176,353.705261 495.266113,351.076294 
	C474.121948,348.286774 454.914551,359.020477 447.648499,378.480652 
	C441.280090,395.536774 442.663269,412.132874 453.260132,428.205719 
M195.593597,370.470428 
	C202.590805,372.301361 206.929199,377.003204 209.927399,383.356781 
	C210.566101,384.710297 212.163620,386.486603 213.389114,386.542572 
	C220.175964,386.852600 226.984360,386.691071 234.056107,386.691071 
	C233.938461,385.313843 233.971909,384.327850 233.757645,383.399017 
	C228.542969,360.793427 205.758087,346.483612 182.989929,351.491272 
	C162.596924,355.976501 148.684052,373.508362 147.574982,396.118286 
	C146.229279,423.551910 164.115753,444.306915 190.072357,445.431213 
	C211.541763,446.361145 230.714340,431.443268 233.672028,411.306702 
	C225.876938,411.306702 218.111176,411.306702 210.185059,411.306702 
	C209.736465,412.311432 209.293793,413.378906 208.790817,414.417175 
	C205.331940,421.557037 199.978073,426.081024 191.750168,426.258392 
	C183.299881,426.440521 177.409058,422.148651 174.021774,414.744110 
	C168.799576,403.328491 168.710724,391.763733 174.977097,380.678833 
	C179.247452,373.124817 185.654221,368.904541 195.593597,370.470428 
M250.446289,194.524506 
	C250.446289,191.905014 250.446289,189.285507 250.446289,186.094666 
	C245.013474,186.094666 240.135696,186.094666 234.862701,186.094666 
	C234.862701,175.117325 234.862701,164.713440 234.862701,154.290070 
	C227.522232,154.290070 220.610840,154.290070 213.114410,154.290070 
	C213.114410,165.077393 213.114410,175.619934 213.114410,186.630951 
	C208.456924,186.630951 204.392471,186.630951 200.402191,186.630951 
	C200.402191,192.385925 200.402191,197.644302 200.402191,202.846466 
	C210.913391,204.785080 213.248276,207.641876 213.264389,218.412247 
	C213.282089,230.235321 213.178604,242.059387 213.299561,253.881256 
	C213.410736,264.748138 219.673477,273.807922 229.510010,275.779083 
	C236.186737,277.117035 243.207291,276.739258 250.161926,277.133759 
	C250.161926,270.041901 250.161926,263.958008 250.161926,257.456818 
	C248.085922,257.456818 246.290558,257.467255 244.495361,257.454987 
	C237.137909,257.404694 235.069992,255.327576 235.057053,247.912750 
	C235.040787,238.587509 235.064392,229.262207 235.049164,219.936966 
	C235.037521,212.801071 233.044250,209.804443 226.322418,207.070953 
	C223.837921,206.060608 221.244003,205.319321 218.699997,204.455338 
	C218.764328,204.091797 218.828659,203.728256 218.892990,203.364716 
	C229.278107,203.364716 239.663239,203.364716 250.446228,203.364716 
	C250.446228,200.362885 250.446228,197.904236 250.446289,194.524506 
M570.813416,397.500092 
	C570.813416,372.076263 570.813416,346.652435 570.813416,321.137329 
	C563.268860,321.137329 556.343323,321.137329 549.184326,321.137329 
	C549.184326,361.926636 549.184326,402.487122 549.184326,443.252991 
	C556.403381,443.252991 563.463806,443.252991 570.813416,443.252991 
	C570.813416,428.112061 570.813416,413.306091 570.813416,397.500092 
M165.453552,272.198853 
	C165.542068,273.651794 165.630569,275.104767 165.716217,276.510620 
	C173.032455,276.510620 179.950226,276.510620 186.937805,276.510620 
	C186.937805,235.611588 186.937805,195.030273 186.937805,154.239075 
	C179.787643,154.239075 172.867844,154.239075 165.453781,154.239075 
	C165.453781,193.360474 165.453781,232.309052 165.453552,272.198853 
z"/>
<path fill="#050505" opacity="1.000000" stroke="none" 
	d="
M356.999756,276.650635 
	C329.202881,276.650604 301.906006,276.650604 274.266418,276.650604 
	C274.266418,267.751038 274.266418,259.194275 274.266418,250.319107 
	C372.937469,250.319107 471.641724,250.319107 570.661865,250.319107 
	C570.661865,258.842438 570.661865,267.428131 570.661865,276.650635 
	C499.663483,276.650635 428.581635,276.650635 356.999756,276.650635 
z"/>
<path fill="#040404" opacity="1.000000" stroke="none" 
	d="
M68.614151,444.375153 
	C48.242062,437.896606 36.151184,423.236023 35.631241,404.334656 
	C43.013084,404.334656 50.400463,404.334656 57.812710,404.334656 
	C62.936108,424.622467 84.617828,434.025818 103.377739,423.992645 
	C108.817390,421.083435 112.877441,416.998779 112.777298,410.373871 
	C112.673149,403.483856 108.485863,398.978394 102.407249,397.106476 
	C92.248848,393.978210 81.792458,391.831024 71.525307,389.036469 
	C66.888924,387.774536 62.229874,386.327789 57.886490,384.308136 
	C45.177017,378.398285 38.840240,368.129456 38.439468,354.192230 
	C38.061695,341.054779 44.081482,331.201202 55.280304,325.089569 
	C74.950607,314.354736 95.316360,314.264191 115.122902,324.457336 
	C127.601608,330.879303 133.754120,342.047363 134.121201,356.573181 
	C126.456581,356.573181 119.043167,356.573181 111.654907,356.573181 
	C106.727524,336.989014 81.345230,329.529724 66.133179,343.091705 
	C58.871525,349.565674 59.702980,359.572052 68.668297,363.585510 
	C75.563553,366.672241 83.301880,367.842224 90.608437,370.052521 
	C99.022392,372.597900 107.822357,374.422150 115.656998,378.209625 
	C130.960022,385.607452 138.193634,400.684082 135.195755,416.153107 
	C133.174591,426.582275 126.685806,433.757080 117.787369,438.764404 
	C102.387344,447.430267 86.028450,449.128510 68.614151,444.375153 
z"/>
<path fill="#040404" opacity="1.000000" stroke="none" 
	d="
M128.214233,267.832703 
	C125.378822,259.419006 122.666939,251.379547 119.829498,242.967896 
	C104.961357,242.967896 90.164436,242.967896 75.367516,242.967880 
	C65.620338,242.967880 65.619530,242.967621 62.673252,252.074142 
	C60.418640,259.042877 58.078545,265.985809 55.959389,272.995514 
	C55.188282,275.546204 54.187485,276.854797 51.172707,276.729706 
	C44.698547,276.460968 38.205502,276.647247 31.060429,276.647247 
	C44.220211,235.538177 57.234238,194.884430 70.266594,154.173416 
	C84.984558,154.173416 99.461411,154.173416 114.443130,154.173416 
	C127.800484,194.627121 141.188690,235.174255 154.871323,276.613129 
	C147.118256,276.613129 139.894501,276.724335 132.683487,276.471558 
	C131.788269,276.440155 130.744598,274.582123 130.154785,273.381378 
	C129.354523,271.752136 128.925812,269.940369 128.214233,267.832703 
M72.637741,223.265869 
	C86.023865,223.265869 99.409996,223.265869 113.284447,223.265869 
	C106.327545,202.310089 99.537895,181.858109 92.346962,160.197388 
	C85.389526,181.765656 78.808434,202.167252 72.637741,223.265869 
z"/>
<path fill="#040404" opacity="1.000000" stroke="none" 
	d="
M362.935699,438.108765 
	C345.322632,425.396179 340.889984,407.839203 344.137756,387.965576 
	C346.997345,370.467194 357.081879,358.252716 374.257599,352.761810 
	C401.355865,344.098755 428.747284,362.002106 432.093323,390.229889 
	C433.357178,400.891937 432.424713,411.203247 427.750519,420.941071 
	C416.402130,444.583435 386.626648,452.549957 362.935699,438.108765 
M408.408264,385.342133 
	C403.861542,375.211670 396.259644,369.712402 387.214325,370.010345 
	C378.502563,370.297302 370.530396,376.380341 367.202484,385.603729 
	C364.035065,394.382233 364.171600,403.251099 367.588379,411.925476 
	C371.149323,420.965942 378.783264,426.169312 387.884949,426.142365 
	C397.008301,426.115356 404.547729,420.915192 408.209229,411.914551 
	C411.676361,403.391571 411.477875,394.737213 408.408264,385.342133 
z"/>
<path fill="#040404" opacity="1.000000" stroke="none" 
	d="
M453.056458,427.910400 
	C442.663269,412.132874 441.280090,395.536774 447.648499,378.480652 
	C454.914551,359.020477 474.121948,348.286774 495.266113,351.076294 
	C515.193176,353.705261 530.791992,370.004211 532.987549,390.636139 
	C534.809998,407.762360 531.407776,423.273621 517.729858,434.955048 
	C498.484406,451.391235 469.499573,448.227081 453.056458,427.910400 
M466.090698,402.109894 
	C467.272400,406.241699 467.890289,410.650574 469.755585,414.446472 
	C473.411133,421.885468 479.743164,425.916626 488.158813,426.105133 
	C496.758545,426.297699 503.535248,422.562012 507.480255,415.053772 
	C513.468933,403.655945 513.519165,391.821136 506.846436,380.718964 
	C498.018311,366.030579 478.635406,366.582764 470.044312,381.435242 
	C466.496826,387.568176 465.571686,394.249573 466.090698,402.109894 
z"/>
<path fill="#050505" opacity="1.000000" stroke="none" 
	d="
M195.195923,370.368835 
	C185.654221,368.904541 179.247452,373.124817 174.977097,380.678833 
	C168.710724,391.763733 168.799576,403.328491 174.021774,414.744110 
	C177.409058,422.148651 183.299881,426.440521 191.750168,426.258392 
	C199.978073,426.081024 205.331940,421.557037 208.790817,414.417175 
	C209.293793,413.378906 209.736465,412.311432 210.185059,411.306702 
	C218.111176,411.306702 225.876938,411.306702 233.672028,411.306702 
	C230.714340,431.443268 211.541763,446.361145 190.072357,445.431213 
	C164.115753,444.306915 146.229279,423.551910 147.574982,396.118286 
	C148.684052,373.508362 162.596924,355.976501 182.989929,351.491272 
	C205.758087,346.483612 228.542969,360.793427 233.757645,383.399017 
	C233.971909,384.327850 233.938461,385.313843 234.056107,386.691071 
	C226.984360,386.691071 220.175964,386.852600 213.389114,386.542572 
	C212.163620,386.486603 210.566101,384.710297 209.927399,383.356781 
	C206.929199,377.003204 202.590805,372.301361 195.195923,370.368835 
z"/>
<path fill="#060606" opacity="1.000000" stroke="none" 
	d="
M250.446259,194.985046 
	C250.446228,197.904236 250.446228,200.362885 250.446228,203.364716 
	C239.663239,203.364716 229.278107,203.364716 218.892990,203.364716 
	C218.828659,203.728256 218.764328,204.091797 218.699997,204.455338 
	C221.244003,205.319321 223.837921,206.060608 226.322418,207.070953 
	C233.044250,209.804443 235.037521,212.801071 235.049164,219.936966 
	C235.064392,229.262207 235.040787,238.587509 235.057053,247.912750 
	C235.069992,255.327576 237.137909,257.404694 244.495361,257.454987 
	C246.290558,257.467255 248.085922,257.456818 250.161926,257.456818 
	C250.161926,263.958008 250.161926,270.041901 250.161926,277.133759 
	C243.207291,276.739258 236.186737,277.117035 229.510010,275.779083 
	C219.673477,273.807922 213.410736,264.748138 213.299561,253.881256 
	C213.178604,242.059387 213.282089,230.235321 213.264389,218.412247 
	C213.248276,207.641876 210.913391,204.785080 200.402191,202.846466 
	C200.402191,197.644302 200.402191,192.385925 200.402191,186.630951 
	C204.392471,186.630951 208.456924,186.630951 213.114410,186.630951 
	C213.114410,175.619934 213.114410,165.077393 213.114410,154.290070 
	C220.610840,154.290070 227.522232,154.290070 234.862701,154.290070 
	C234.862701,164.713440 234.862701,175.117325 234.862701,186.094666 
	C240.135696,186.094666 245.013474,186.094666 250.446289,186.094666 
	C250.446289,189.285507 250.446289,191.905014 250.446259,194.985046 
z"/>
<path fill="#050505" opacity="1.000000" stroke="none" 
	d="
M570.813416,398.000122 
	C570.813416,413.306091 570.813416,428.112061 570.813416,443.252991 
	C563.463806,443.252991 556.403381,443.252991 549.184326,443.252991 
	C549.184326,402.487122 549.184326,361.926636 549.184326,321.137329 
	C556.343323,321.137329 563.268860,321.137329 570.813416,321.137329 
	C570.813416,346.652435 570.813416,372.076263 570.813416,398.000122 
z"/>
<path fill="#070707" opacity="1.000000" stroke="none" 
	d="
M165.453674,271.728241 
	C165.453781,232.309052 165.453781,193.360474 165.453781,154.239075 
	C172.867844,154.239075 179.787643,154.239075 186.937805,154.239075 
	C186.937805,195.030273 186.937805,235.611588 186.937805,276.510620 
	C179.950226,276.510620 173.032455,276.510620 165.716217,276.510620 
	C165.630569,275.104767 165.542068,273.651794 165.453674,271.728241 
z"/>
<path fill="#050505" opacity="1.000000" stroke="none" 
	d="
M270.921753,386.986633 
	C270.921783,405.626007 270.921783,424.265381 270.921783,443.247009 
	C263.693146,443.247009 256.648468,443.247009 249.451721,443.247009 
	C249.451721,402.446411 249.451721,361.901947 249.451721,321.132996 
	C256.627533,321.132996 263.540863,321.132996 270.994080,321.132996 
	C270.994080,339.902863 270.994080,358.498749 270.678589,377.846893 
	C270.549316,381.394989 270.735535,384.190826 270.921753,386.986633 
z"/>
<path fill="#050505" opacity="1.000000" stroke="none" 
	d="
M272.385986,376.922089 
	C273.374481,373.758179 274.055420,370.456451 275.401398,367.452728 
	C284.161835,347.903076 306.611725,345.086975 321.019897,361.661499 
	C326.140839,367.552399 328.786560,374.514984 328.851959,382.234985 
	C329.019745,402.046967 328.929077,421.861176 328.923523,441.674500 
	C328.923370,442.138428 328.708221,442.602295 328.530670,443.319336 
	C321.594208,443.319336 314.665771,443.319336 307.323883,443.319336 
	C307.217285,441.873718 307.023865,440.456146 307.021820,439.038300 
	C306.999512,423.720245 307.042694,408.402008 306.976318,393.084198 
	C306.963409,390.103088 306.772217,387.088074 306.287567,384.150665 
	C305.144135,377.220123 301.697540,371.834656 294.523163,370.172150 
	C286.766907,368.374786 279.567596,369.373535 273.851318,376.730469 
	C272.930786,376.923340 272.658386,376.922729 272.385986,376.922089 
z"/>
<path fill="#323232" opacity="1.000000" stroke="none" 
	d="
M272.181946,377.128967 
	C272.658386,376.922729 272.930786,376.923340 273.609589,376.965912 
	C273.076080,380.107605 272.136139,383.207336 271.058960,386.646851 
	C270.735535,384.190826 270.549316,381.394989 270.628296,378.315063 
	C271.255005,377.799255 271.616455,377.567535 272.181946,377.128967 
z"/>
<path fill="#F7F7F7" opacity="1.000000" stroke="none" 
	d="
M72.432541,222.917358 
	C78.808434,202.167252 85.389526,181.765656 92.346962,160.197388 
	C99.537895,181.858109 106.327545,202.310089 113.284447,223.265869 
	C99.409996,223.265869 86.023865,223.265869 72.432541,222.917358 
z"/>
<path fill="#FCFCFC" opacity="1.000000" stroke="none" 
	d="
M408.573120,385.700378 
	C411.477875,394.737213 411.676361,403.391571 408.209229,411.914551 
	C404.547729,420.915192 397.008301,426.115356 387.884949,426.142365 
	C378.783264,426.169312 371.149323,420.965942 367.588379,411.925476 
	C364.171600,403.251099 364.035065,394.382233 367.202484,385.603729 
	C370.530396,376.380341 378.502563,370.297302 387.214325,370.010345 
	C396.259644,369.712402 403.861542,375.211670 408.573120,385.700378 
z"/>
<path fill="#FCFCFC" opacity="1.000000" stroke="none" 
	d="
M466.064331,401.657227 
	C465.571686,394.249573 466.496826,387.568176 470.044312,381.435242 
	C478.635406,366.582764 498.018311,366.030579 506.846436,380.718964 
	C513.519165,391.821136 513.468933,403.655945 507.480255,415.053772 
	C503.535248,422.562012 496.758545,426.297699 488.158813,426.105133 
	C479.743164,425.916626 473.411133,421.885468 469.755585,414.446472 
	C467.890289,410.650574 467.272400,406.241699 466.064331,401.657227 
z"/>
</svg>